<svg width="1255" height="1404" viewBox="0 0 1255 1404" fill="none" xmlns="http://www.w3.org/2000/svg">
  <path d="M1082.19 783.224C1130.45 783.224 1169.58 743.804 1169.58 695.177C1169.58 646.55 1130.45 607.13 1082.19 607.13C1033.93 607.13 994.801 646.55 994.801 695.177C994.801 743.804 1033.93 783.224 1082.19 783.224Z" fill="#39F8EB"/>
  <path d="M636.593 508.566L627.499 492.817L618.406 508.566L158.664 1304.83L149.57 1320.58H167.757H1087.24H1105.43L1096.33 1304.83L636.593 508.566ZM18.1871 1393L627.499 337.706L1236.81 1393H18.1871Z" fill="black" stroke="black" stroke-width="21"/>
  <path d="M543.516 17.7679L543.523 17.7668C813.356 -28.057 1069.16 147.586 1125.59 412.152L1049.92 424.802C1008.84 229.527 835.606 82.409 627.436 82.409C388.607 82.409 195.433 276.177 195.433 514.028C195.433 751.732 388.359 944.894 626.946 945.158C627.019 945.158 627.091 945.158 627.164 945.158C627.254 945.158 627.345 945.158 627.436 945.158C645.551 945.127 663.545 943.361 680.973 941.07L694.574 1020.57C424.639 1056.41 172.621 872.88 126.697 602.653C80.1816 326.499 266.262 64.6791 543.516 17.7679Z" fill="black" stroke="black" stroke-width="21"/>
</svg>