<svg width="3632" height="1111" viewBox="0 0 3632 1111" fill="none" xmlns="http://www.w3.org/2000/svg">
<path d="M823.5 623C860.227 623 890 593.003 890 556C890 518.997 860.227 489 823.5 489C786.773 489 757 518.997 757 556C757 593.003 786.773 623 823.5 623Z" fill="#39F8EB"/>
<path d="M486.593 412.741L477.5 396.992L468.407 412.741L118.563 1018.66L109.469 1034.41H127.656H827.344H845.531L836.437 1018.66L486.593 412.741ZM18.1871 1084.5L477.5 288.999L936.813 1084.5H18.1871Z" fill="white" stroke="white" stroke-width="21"/>
<path d="M414.013 42.9954L414.02 42.9943C617.146 8.49879 809.758 140.006 853.518 338.589L800.896 347.385C768.507 198.826 636.237 87.1998 477.454 87.1998C294.329 87.1998 146.208 235.773 146.208 418.153C146.208 600.425 294.144 748.534 477.081 748.735C477.137 748.735 477.192 748.735 477.247 748.735C477.316 748.735 477.385 748.735 477.454 748.735C490.556 748.712 503.551 747.511 516.125 745.912L525.629 801.457C322.527 827.043 133.462 688.602 98.8887 485.178C63.7218 276.405 204.397 78.4622 414.013 42.9954Z" fill="white" stroke="white" stroke-width="21"/>
<path d="M1577 461H1496.44L1465.83 388.473H1313.57L1282.56 461H1202L1390.1 21L1577 461ZM1465.83 388.473L1390.1 209.974L1313.57 388.473H1465.83Z" fill="white"/>
<path d="M2040 27V101.1H1940.65V472H1866.35V101.502H1767V27H2040Z" fill="white"/>
<path d="M2679 238C2679 360.993 2578.99 461 2456 461C2333.01 461 2233 360.993 2233 238C2233 115.007 2333.01 15 2456 15C2578.99 15 2679 115.007 2679 238ZM2604.8 238C2604.8 155.736 2538.26 89.1989 2456 89.1989C2373.74 89.1989 2307.2 155.736 2307.2 238C2307.2 320.264 2373.74 386.801 2456 386.801C2538.26 386.801 2604.4 320.264 2604.8 238Z" fill="white"/>
<path d="M1489.46 1101.27C1373.51 1136.74 1250.31 1072.24 1212.87 956.531C1175.42 840.823 1237.83 716.649 1352.57 677.139C1467.32 637.629 1592.53 697.701 1634 811.796L1564.35 837.195C1536.57 760.997 1453.23 721.084 1376.73 747.29C1300.23 773.495 1258.76 856.547 1283.73 933.551C1308.69 1010.55 1390.42 1053.69 1468.12 1029.91L1489.86 1100.86L1489.46 1101.27Z" fill="white"/>
<path d="M2672 1095H2591.23L2560.53 1022.07H2407.87L2376.77 1095H2296L2484.61 651L2672 1095ZM2560.53 1022.07L2484.61 841.573L2407.87 1022.07H2560.53Z" fill="white"/>
<path d="M2962.24 736.602V1108H2888V662H3166V736.199H2962.64L2962.24 736.602Z" fill="white"/>
<path d="M3632 661V735.1H3532.65V1106H3458.35V735.1H3359V661H3632Z" fill="white"/>
<path d="M3085 935C3110.41 935 3131 914.405 3131 889C3131 863.595 3110.41 843 3085 843C3059.59 843 3039 863.595 3039 889C3039 914.405 3059.59 935 3085 935Z" fill="white"/>
<path d="M1950.7 664.719H1770.2V974.015H1843.93V892.261V735.197H1932.98C1971.66 735.197 2003.08 766.61 2003.08 805.272V823.395C2003.08 857.224 1978.91 885.415 1947.08 892.261H2075.61C2082.86 875.347 2087.29 856.821 2087.29 837.087V801.647C2087.29 725.934 2026.05 664.719 1950.3 664.719H1950.7Z" fill="white"/>
<path d="M1892.29 886.623H1978.51L2107.04 1106.11H2015.18L1892.29 886.623Z" fill="white"/>
<path d="M1844.33 671.163H1769.79V1107.32H1844.33V671.163Z" fill="white"/>
<path d="M3198.05 247.679V60.4099L3272.19 0.000488281V445.419H3198.05V247.679Z" fill="white"/>
<path d="M2935.35 247.679V60.4099L2861.21 0.000488281V445.419H2935.35V247.679Z" fill="white"/>
<path d="M2861.21 0.000488281L3069.12 158.676L3272.19 0.000488281L3198.05 146.997L3072.74 240.43L2934.95 144.58" fill="white"/>
<path d="M2861.21 0.000488281L3069.12 158.676L3272.19 0.000488281L3270.58 105.113L3071.94 247.276L2864.43 97.0583" fill="white"/>
</svg>
