<svg width="4693" height="487" viewBox="0 0 4693 487" fill="none" xmlns="http://www.w3.org/2000/svg">
<path d="M375 476H294.44L263.83 403.473H111.57L80.56 476H0L188.1 36L375 476ZM263.83 403.473L188.1 224.974L111.57 403.473H263.83Z" fill="white"/>
<path d="M838 42V116.1H738.65V487H664.35V116.502H565V42H838Z" fill="white"/>
<path d="M1477 253C1477 375.993 1376.99 476 1254 476C1131.01 476 1031 375.993 1031 253C1031 130.007 1131.01 30 1254 30C1376.99 30 1477 130.007 1477 253ZM1402.8 253C1402.8 170.736 1336.26 104.199 1254 104.199C1171.74 104.199 1105.2 170.736 1105.2 253C1105.2 335.264 1171.74 401.801 1254 401.801C1336.26 401.801 1402.4 335.264 1402.8 253Z" fill="white"/>
<path d="M2550.46 450.266C2434.51 485.745 2311.31 421.239 2273.87 305.531C2236.42 189.823 2298.83 65.6491 2413.57 26.1391C2528.32 -13.3709 2653.53 46.701 2695 160.796L2625.35 186.195C2597.57 109.997 2514.23 70.084 2437.73 96.29C2361.23 122.495 2319.76 205.547 2344.73 282.551C2369.69 359.555 2451.42 402.693 2529.12 378.907L2550.86 449.863L2550.46 450.266Z" fill="white"/>
<path d="M3733 444H3652.23L3621.53 371.074H3468.87L3437.77 444H3357L3545.61 0L3733 444ZM3621.53 371.074L3545.61 190.573L3468.87 371.074H3621.53Z" fill="white"/>
<path d="M4023.24 85.602V457H3949V11H4227V85.199H4023.64L4023.24 85.602Z" fill="white"/>
<path d="M4693 10V84.1H4593.65V455H4519.35V84.1H4420V10H4693Z" fill="white"/>
<path d="M4146 284C4171.41 284 4192 263.405 4192 238C4192 212.595 4171.41 192 4146 192C4120.59 192 4100 212.595 4100 238C4100 263.405 4120.59 284 4146 284Z" fill="white"/>
<path d="M3011.7 13.719H2831.2V323.015H2904.93V241.261V84.196H2993.98C3032.66 84.196 3064.08 115.609 3064.08 154.271V172.394C3064.08 206.223 3039.91 234.414 3008.08 241.261H3136.61C3143.86 224.346 3148.29 205.821 3148.29 186.087V150.647C3148.29 74.934 3087.05 13.719 3011.3 13.719H3011.7Z" fill="white"/>
<path d="M2953.29 235.623H3039.51L3168.04 455.111H3076.18L2953.29 235.623Z" fill="white"/>
<path d="M2905.33 20.162H2830.79V456.318H2905.33V20.162Z" fill="white"/>
<path d="M1996.05 262.679V75.409L2070.19 15V460.419H1996.05V262.679Z" fill="white"/>
<path d="M1733.35 262.679V75.409L1659.21 15V460.419H1733.35V262.679Z" fill="white"/>
<path d="M1659.21 15L1867.12 173.675L2070.19 15L1996.05 161.996L1870.74 255.429L1732.95 159.58" fill="white"/>
<path d="M1659.21 15L1867.12 173.675L2070.19 15L2068.58 120.112L1869.94 262.276L1662.43 112.058" fill="white"/>
</svg>
