<svg width="5620" height="782" viewBox="0 0 5620 782" fill="none" xmlns="http://www.w3.org/2000/svg">

<path d="M1302 631H1221.44L1190.83 558.473H1038.57L1007.56 631H927L1115.1 191L1302 631ZM1190.83 558.473L1115.1 379.974L1038.57 558.473H1190.83Z" fill="white"/>
<path d="M1765 197V271.1H1665.65V642H1591.35V271.502H1492V197H1765Z" fill="white"/>
<path d="M2404 408C2404 530.993 2303.99 631 2181 631C2058.01 631 1958 530.993 1958 408C1958 285.007 2058.01 185 2181 185C2303.99 185 2404 285.007 2404 408ZM2329.8 408C2329.8 325.736 2263.26 259.199 2181 259.199C2098.74 259.199 2032.2 325.736 2032.2 408C2032.2 490.264 2098.74 556.801 2181 556.801C2263.26 556.801 2329.4 490.264 2329.8 408Z" fill="white"/>
<path d="M3477.46 605.266C3361.51 640.745 3238.31 576.239 3200.87 460.531C3163.42 344.823 3225.83 220.649 3340.57 181.139C3455.32 141.629 3580.53 201.701 3622 315.796L3552.35 341.195C3524.57 264.997 3441.23 225.084 3364.73 251.29C3288.23 277.495 3246.76 360.547 3271.73 437.551C3296.69 514.555 3378.42 557.693 3456.12 533.907L3477.86 604.863L3477.46 605.266Z" fill="white"/>
<path d="M4660 599H4579.23L4548.53 526.074H4395.87L4364.77 599H4284L4472.61 155L4660 599ZM4548.53 526.074L4472.61 345.573L4395.87 526.074H4548.53Z" fill="white"/>
<path d="M4950.24 240.602V612H4876V166H5154V240.199H4950.64L4950.24 240.602Z" fill="white"/>
<path d="M5620 165V239.1H5520.65V610H5446.35V239.1H5347V165H5620Z" fill="white"/>
<path d="M5073 439C5098.41 439 5119 418.405 5119 393C5119 367.595 5098.41 347 5073 347C5047.59 347 5027 367.595 5027 393C5027 418.405 5047.59 439 5073 439Z" fill="white"/>
<path d="M3938.7 168.719H3758.2V478.015H3831.93V396.261V239.196H3920.98C3959.66 239.196 3991.08 270.609 3991.08 309.271V327.394C3991.08 361.223 3966.91 389.414 3935.08 396.261H4063.61C4070.86 379.346 4075.29 360.821 4075.29 341.087V305.647C4075.29 229.934 4014.05 168.719 3938.3 168.719H3938.7Z" fill="white"/>
<path d="M3880.29 390.623H3966.51L4095.04 610.111H4003.18L3880.29 390.623Z" fill="white"/>
<path d="M3832.33 175.162H3757.79V611.318H3832.33V175.162Z" fill="white"/>
<path d="M2923.05 417.679V230.409L2997.19 170V615.419H2923.05V417.679Z" fill="white"/>
<path d="M2660.35 417.679V230.409L2586.21 170V615.419H2660.35V417.679Z" fill="white"/>
<path d="M2586.21 170L2794.12 328.675L2997.19 170L2923.05 316.996L2797.74 410.429L2659.95 314.58" fill="white"/>
<path d="M2586.21 170L2794.12 328.675L2997.19 170L2995.58 275.112L2796.94 417.276L2589.43 267.058" fill="white"/>
</svg>
