      
<svg width="74" height="1875" viewBox="0 0 74 1875" fill="none" xmlns="http://www.w3.org/2000/svg">
<path id="timeline-path-filled" d="M37 54.4857C13.6665 -16.8286 13.6665 -16.8286 37 54.4857ZM37 54.4857C60.3335 125.8 60.3335 197.114 37 268.429C13.6665 339.743 13.6665 411.057 37 482.371C60.3335 553.686 60.3335 625 37 696.314C13.6665 767.629 13.6665 838.943 37 910.257C60.3335 981.571 60.3335 1052.89 37 1124.2C13.6665 1195.51 13.6665 1266.83 37 1338.14C60.3335 1409.46 60.3335 1480.77 37 1552.09C13.6665 1575.86 13.6665 1599.63 37 1623.4C60.3335 1641.23 60.3335 1659.06 37 1676.89C13.6665 1691.15 13.6665 1705.41 37 1719.67C60.3335 1729.18 60.3335 1738.69 37 1748.2C13.6665 1755.33 13.6665 1762.46 37 1769.59C60.3335 1774.35 60.3335 1779.1 37 1783.86C13.6665 1787.42 13.6665 1790.99 37 1794.55C60.3335 1796.93 60.3335 1799.31 37 1801.69C13.6665 1802.87 13.6665 1804.06 37 1805.25C60.3335 1806.44 60.3335 1807.63 37 1808.82C13.6665 1810.01 13.6665 1811.19 37 1812.38C60.3335 1813.57 60.3335 1814.76 37 1815.95C13.6665 1817.14 13.6665 1818.33 37 1819.51C60.3335 1820.7 60.3335 1821.89 37 1823.08C13.6665 1824.27 13.6665 1825.46 37 1826.65C60.3335 1827.83 60.3335 1829.02 37 1830.21C13.6665 1831.4 13.6665 1832.59 37 1833.78C60.3335 1834.97 60.3335 1836.15 37 1837.34C13.6665 1838.53 13.6665 1839.72 37 1840.91C60.3335 1842.1 60.3335 1843.29 37 1844.47C13.6665 1845.66 13.6665 1846.85 37 1848.04C60.3335 1849.23 60.3335 1850.42 37 1851.61C13.6665 1852.79 13.6665 1853.98 37 1855.17C60.3335 1856.36 60.3335 1857.55 37 1858.74C13.6665 1859.93 13.6665 1861.11 37 1862.3C60.3335 1863.49 60.3335 1864.68 37 1865.87C13.6665 1867.06 13.6665 1868.25 37 1869.43C60.3335 1870.62 60.3335 1871.81 37 1873" stroke="#9747FF" stroke-width="3"/>
</svg>

    