<svg width="74" height="1875" viewBox="0 0 74 1875" fill="none" xmlns="http://www.w3.org/2000/svg">
<path id="timeline-path" d="M37 54.4857C-9.66667 -16.8286 -9.66667 -16.8286 37 54.4857ZM37 54.4857C83.6667 125.8 83.6667 197.114 37 268.429C-9.66667 339.743 -9.66667 411.057 37 482.371C83.6667 553.686 83.6667 625 37 696.314C-9.66667 767.629 -9.66667 838.943 37 910.257C83.6667 981.571 83.6667 1052.89 37 1124.2C-9.66667 1195.51 -9.66667 1266.83 37 1338.14C83.6667 1409.46 83.6667 1480.77 37 1552.09C-9.66667 1575.86 -9.66667 1599.63 37 1623.4C83.6667 1641.23 83.6667 1659.06 37 1676.89C-9.66667 1691.15 -9.66667 1705.41 37 1719.67C83.6667 1729.18 83.6667 1738.69 37 1748.2C-9.66667 1755.33 -9.66667 1762.46 37 1769.59C83.6667 1774.35 83.6667 1779.1 37 1783.86C-9.66667 1787.42 -9.66667 1790.99 37 1794.55C83.6667 1796.93 83.6667 1799.31 37 1801.69C-9.66667 1802.87 -9.66667 1804.06 37 1805.25C83.6667 1806.44 83.6667 1807.63 37 1808.82C-9.66667 1810.01 -9.66667 1811.19 37 1812.38C83.6667 1813.57 83.6667 1814.76 37 1815.95C-9.66667 1817.14 -9.66667 1818.33 37 1819.51C83.6667 1820.7 83.6667 1821.89 37 1823.08C-9.66667 1824.27 -9.66667 1825.46 37 1826.65C83.6667 1827.83 83.6667 1829.02 37 1830.21C-9.66667 1831.4 -9.66667 1832.59 37 1833.78C83.6667 1834.97 83.6667 1836.15 37 1837.34C-9.66667 1838.53 -9.66667 1839.72 37 1840.91C83.6667 1842.1 83.6667 1843.29 37 1844.47C-9.66667 1845.66 -9.66667 1846.85 37 1848.04C83.6667 1849.23 83.6667 1850.42 37 1851.61C-9.66667 1852.79 -9.66667 1853.98 37 1855.17C83.6667 1856.36 83.6667 1857.55 37 1858.74C-9.66667 1859.93 -9.66667 1861.11 37 1862.3C83.6667 1863.49 83.6667 1864.68 37 1865.87C-9.66667 1867.06 -9.66667 1868.25 37 1869.43C83.6667 1870.62 83.6667 1871.81 37 1873" stroke="white" stroke-width="3"/>
</svg>
