<svg xmlns="http://www.w3.org/2000/svg" version="1.1" xmlns:xlink="http://www.w3.org/1999/xlink" width="1000" height="1000"><style>
    #light-icon {
      display: inline;
    }
    #dark-icon {
      display: none;
    }

    @media (prefers-color-scheme: dark) {
      #light-icon {
        display: none;
      }
      #dark-icon {
        display: inline;
      }
    }
  </style><g id="light-icon"><svg xmlns="http://www.w3.org/2000/svg" version="1.1" xmlns:xlink="http://www.w3.org/1999/xlink" width="1000" height="1000"><g><g transform="matrix(0.7122507122507122,0,0,0.7122507122507122,53.06267806267806,0)"><svg xmlns="http://www.w3.org/2000/svg" version="1.1" xmlns:xlink="http://www.w3.org/1999/xlink" width="1255" height="1404"><svg width="1255" height="1404" viewBox="0 0 1255 1404" fill="none" xmlns="http://www.w3.org/2000/svg">
<path d="M1082.19 783.224C1130.45 783.224 1169.58 743.804 1169.58 695.177C1169.58 646.55 1130.45 607.13 1082.19 607.13C1033.93 607.13 994.801 646.55 994.801 695.177C994.801 743.804 1033.93 783.224 1082.19 783.224Z" fill="#39F8EB"></path>
<path d="M636.593 508.566L627.499 492.817L618.406 508.566L158.664 1304.83L149.57 1320.58H167.757H1087.24H1105.43L1096.33 1304.83L636.593 508.566ZM18.1871 1393L627.499 337.706L1236.81 1393H18.1871Z" fill="black" stroke="black" stroke-width="21"></path>
<path d="M543.516 17.7679L543.523 17.7668C813.356 -28.057 1069.16 147.586 1125.59 412.152L1049.92 424.802C1008.84 229.527 835.606 82.409 627.436 82.409C388.607 82.409 195.433 276.177 195.433 514.028C195.433 751.732 388.359 944.894 626.946 945.158C627.019 945.158 627.091 945.158 627.164 945.158C627.254 945.158 627.345 945.158 627.436 945.158C645.551 945.127 663.545 943.361 680.973 941.07L694.574 1020.57C424.639 1056.41 172.621 872.88 126.697 602.653C80.1816 326.499 266.262 64.6791 543.516 17.7679Z" fill="black" stroke="black" stroke-width="21"></path>
</svg></svg></g></g></svg></g><g id="dark-icon"><svg xmlns="http://www.w3.org/2000/svg" version="1.1" xmlns:xlink="http://www.w3.org/1999/xlink" width="1000" height="1000"><g><g transform="matrix(0.9363295880149812,0,0,0.9363295880149812,52.90262172284645,0)"><svg xmlns="http://www.w3.org/2000/svg" version="1.1" xmlns:xlink="http://www.w3.org/1999/xlink" width="955" height="1068"><svg width="955" height="1068" viewBox="0 0 955 1068" fill="none" xmlns="http://www.w3.org/2000/svg">
<path d="M823.5 596C860.227 596 890 566.003 890 529C890 491.997 860.227 462 823.5 462C786.773 462 757 491.997 757 529C757 566.003 786.773 596 823.5 596Z" fill="#39F8EB"></path>
<path d="M486.593 385.741L477.5 369.992L468.407 385.741L118.563 991.662L109.469 1007.41H127.656H827.344H845.531L836.437 991.662L486.593 385.741ZM18.1871 1057.5L477.5 261.999L936.813 1057.5H18.1871Z" fill="white" stroke="white" stroke-width="21"></path>
<path d="M414.013 15.9949L414.02 15.9938C617.146 -18.5017 809.758 113.006 853.518 311.588L800.896 320.385C768.507 171.826 636.237 60.1993 477.454 60.1993C294.329 60.1993 146.208 208.773 146.208 391.153C146.208 573.424 294.144 721.533 477.081 721.734C477.137 721.734 477.192 721.734 477.247 721.734C477.316 721.734 477.385 721.734 477.454 721.734C490.556 721.712 503.551 720.51 516.125 718.911L525.629 774.457C322.527 800.042 133.462 661.601 98.8887 458.178C63.7218 249.404 204.397 51.4617 414.013 15.9949Z" fill="white" stroke="white" stroke-width="21"></path>
</svg></svg></g></g></svg></g></svg>